G04 (created by PCBNEW-RS274X (2011-07-08 BZR 3044)-stable) date 07/12/2011 16:14:23*
G01*
G70*
G90*
%MOIN*%
G04 Gerber Fmt 3.4, Leading zero omitted, Abs format*
%FSLAX34Y34*%
G04 APERTURE LIST*
%ADD10C,0.006000*%
%ADD11C,0.003900*%
%ADD12R,0.040500X0.011800*%
%ADD13R,0.017700X0.051100*%
%ADD14R,0.009800X0.039300*%
%ADD15R,0.039300X0.009800*%
%ADD16R,0.098400X0.098400*%
%ADD17R,0.082600X0.220400*%
%ADD18R,0.220400X0.082600*%
%ADD19R,0.015700X0.053100*%
%ADD20R,0.070900X0.074800*%
%ADD21R,0.074800X0.074800*%
%ADD22R,0.082700X0.063000*%
%ADD23R,0.090600X0.051200*%
%ADD24R,0.063000X0.055100*%
%ADD25R,0.039300X0.027500*%
%ADD26R,0.036000X0.036000*%
%ADD27R,0.144000X0.080000*%
%ADD28R,0.040000X0.080000*%
%ADD29R,0.023600X0.041300*%
%ADD30R,0.024800X0.032600*%
%ADD31R,0.032600X0.024800*%
%ADD32R,0.047200X0.035400*%
%ADD33R,0.020000X0.045000*%
%ADD34R,0.150000X0.055000*%
%ADD35R,0.050000X0.100000*%
%ADD36R,0.080000X0.060000*%
%ADD37R,0.060000X0.080000*%
%ADD38R,0.055000X0.035000*%
%ADD39R,0.035000X0.055000*%
%ADD40R,0.045000X0.025000*%
%ADD41R,0.025000X0.045000*%
%ADD42R,0.039300X0.035400*%
%ADD43R,0.043300X0.035400*%
%ADD44R,0.086600X0.086600*%
%ADD45R,0.047200X0.047200*%
%ADD46C,0.051400*%
%ADD47R,0.051200X0.059100*%
%ADD48R,0.027600X0.068900*%
%ADD49R,0.059100X0.059100*%
%ADD50R,0.031500X0.055100*%
%ADD51R,0.031500X0.059100*%
%ADD52R,0.039400X0.061000*%
%ADD53R,0.057100X0.039400*%
%ADD54R,0.059000X0.049200*%
%ADD55R,0.049200X0.059000*%
%ADD56R,0.092500X0.011800*%
%ADD57R,0.011800X0.092500*%
%ADD58R,0.011800X0.078700*%
%ADD59R,0.078700X0.011800*%
%ADD60R,0.043300X0.009800*%
%ADD61R,0.100000X0.100000*%
%ADD62R,0.023600X0.086600*%
%ADD63R,0.086600X0.023600*%
%ADD64R,0.041300X0.009800*%
%ADD65R,0.009800X0.041300*%
%ADD66R,0.192900X0.192900*%
%ADD67R,0.011800X0.040500*%
%ADD68R,0.051100X0.017700*%
G04 APERTURE END LIST*
G54D10*
G54D11*
X62992Y00000D02*
X00000Y00000D01*
X62992Y39370D02*
X62992Y00000D01*
X00000Y39370D02*
X62992Y39370D01*
X00000Y00000D02*
X00000Y39370D01*
G54D12*
X22654Y37007D03*
X22654Y36811D03*
X22654Y36615D03*
X23408Y36615D03*
X23408Y36811D03*
X23408Y37007D03*
G54D13*
X23031Y36811D03*
G54D14*
X21595Y16989D03*
X21792Y16989D03*
X21989Y16989D03*
X22185Y16989D03*
X22382Y16989D03*
X22579Y16989D03*
G54D15*
X22972Y17382D03*
X22972Y17579D03*
X22972Y17776D03*
X22972Y17972D03*
X22972Y18169D03*
X22972Y18366D03*
G54D14*
X22579Y18759D03*
X22382Y18759D03*
X22185Y18759D03*
X21989Y18759D03*
X21792Y18759D03*
X21595Y18759D03*
G54D15*
X21202Y18366D03*
X21202Y18169D03*
X21202Y17972D03*
X21202Y17776D03*
X21202Y17579D03*
X21202Y17382D03*
G54D16*
X22087Y17874D03*
G54D17*
X47638Y33484D03*
X47638Y29744D03*
G54D18*
X20650Y11378D03*
X16910Y11378D03*
G54D17*
X25709Y14744D03*
X25709Y18484D03*
G54D10*
G36*
X24075Y30177D02*
X26279Y30177D01*
X26279Y29351D01*
X24075Y29351D01*
X24075Y30177D01*
X24075Y30177D01*
G37*
G54D18*
X21437Y29764D03*
G54D19*
X21774Y37747D03*
X22050Y37747D03*
X22325Y37747D03*
X22600Y37747D03*
X22876Y37747D03*
G54D20*
X23900Y38800D03*
X20750Y38800D03*
G54D21*
X22797Y38800D03*
X21853Y38800D03*
G54D22*
X23545Y37796D03*
X21105Y37796D03*
G54D19*
X15275Y37747D03*
X15551Y37747D03*
X15826Y37747D03*
X16101Y37747D03*
X16377Y37747D03*
G54D23*
X17302Y38800D03*
X14350Y38800D03*
G54D20*
X16279Y38800D03*
X15373Y38800D03*
G54D24*
X17086Y37835D03*
X14566Y37835D03*
G54D25*
X33210Y31655D03*
X33210Y32029D03*
X33210Y32403D03*
X32266Y32403D03*
X32266Y31655D03*
G54D26*
X54228Y14868D03*
X54228Y15568D03*
X55028Y15218D03*
G54D27*
X12599Y30038D03*
G54D28*
X12599Y32638D03*
X11699Y32638D03*
X13499Y32638D03*
G54D29*
X14429Y35787D03*
X14055Y35787D03*
X13681Y35787D03*
X13681Y34725D03*
X14429Y34725D03*
G54D30*
X03894Y01377D03*
X04768Y01377D03*
G54D31*
X12638Y37760D03*
X12638Y36886D03*
X18583Y38429D03*
X18583Y37555D03*
G54D32*
X34291Y31525D03*
X34291Y30207D03*
X12992Y10895D03*
X12992Y09577D03*
X13780Y10895D03*
X13780Y09577D03*
X60039Y05089D03*
X60039Y06407D03*
X53543Y05089D03*
X53543Y06407D03*
G54D33*
X08034Y32531D03*
X07534Y32531D03*
X07034Y32531D03*
X06534Y32531D03*
X06534Y35031D03*
X07034Y35031D03*
X07534Y35031D03*
X08034Y35031D03*
G54D34*
X01024Y33026D03*
X01024Y31226D03*
G54D35*
X32077Y30591D03*
X33277Y30591D03*
G54D36*
X19567Y38800D03*
X19567Y37500D03*
G54D37*
X22381Y20276D03*
X23681Y20276D03*
X11948Y33779D03*
X13248Y33779D03*
G54D36*
X13465Y37973D03*
X13465Y36673D03*
X04232Y03603D03*
X04232Y02303D03*
X11024Y00925D03*
X11024Y02225D03*
X14566Y30884D03*
X14566Y32184D03*
G54D37*
X21477Y15433D03*
X20177Y15433D03*
G54D38*
X16339Y22501D03*
X16339Y21751D03*
G54D39*
X20452Y14528D03*
X21202Y14528D03*
X11399Y03150D03*
X10649Y03150D03*
G54D38*
X20630Y08011D03*
X20630Y08761D03*
G54D40*
X54724Y07613D03*
X54724Y08213D03*
G54D41*
X49749Y31457D03*
X49149Y31457D03*
G54D40*
X53898Y31708D03*
X53898Y32308D03*
X54567Y30448D03*
X54567Y31048D03*
G54D41*
X55143Y32362D03*
X54543Y32362D03*
G54D40*
X51890Y29552D03*
X51890Y28952D03*
X55827Y34276D03*
X55827Y33676D03*
G54D41*
X55133Y30551D03*
X55733Y30551D03*
G54D40*
X54646Y32928D03*
X54646Y33528D03*
G54D41*
X55763Y34843D03*
X56363Y34843D03*
X55842Y33150D03*
X56442Y33150D03*
X55143Y31614D03*
X54543Y31614D03*
G54D40*
X55827Y32623D03*
X55827Y32023D03*
X58858Y07613D03*
X58858Y08213D03*
X53937Y32928D03*
X53937Y33528D03*
X51772Y30694D03*
X51772Y30094D03*
X50315Y30891D03*
X50315Y30291D03*
X52677Y30094D03*
X52677Y30694D03*
X49331Y30812D03*
X49331Y30212D03*
G54D41*
X53322Y30157D03*
X53922Y30157D03*
X53322Y30906D03*
X53922Y30906D03*
G54D42*
X45414Y28564D03*
X46082Y28564D03*
G54D43*
X45748Y29704D03*
G54D44*
X10039Y34686D03*
X10039Y32482D03*
G54D45*
X44686Y36989D03*
X44686Y37815D03*
X43702Y36989D03*
X43702Y37815D03*
X18170Y34094D03*
X18996Y34094D03*
X18170Y35669D03*
X18996Y35669D03*
X18170Y34882D03*
X18996Y34882D03*
X42716Y36989D03*
X42716Y37815D03*
X41733Y36989D03*
X41733Y37815D03*
X39764Y36989D03*
X39764Y37815D03*
X40749Y36989D03*
X40749Y37815D03*
X45670Y36989D03*
X45670Y37815D03*
X46654Y36989D03*
X46654Y37815D03*
X40512Y33091D03*
X40512Y33917D03*
X39764Y33091D03*
X39764Y33917D03*
G54D46*
X00824Y26818D03*
X01574Y26318D03*
X02324Y26818D03*
X03074Y26318D03*
X02324Y25818D03*
X03074Y25318D03*
X02324Y24818D03*
X03074Y24318D03*
X02324Y23818D03*
X03074Y23318D03*
X02324Y22818D03*
X03074Y22318D03*
X02324Y21818D03*
X03074Y21318D03*
X02324Y20818D03*
X03074Y20318D03*
X02324Y19818D03*
X03074Y19318D03*
X02324Y18818D03*
X03074Y18318D03*
X02324Y17818D03*
X03074Y17318D03*
X02324Y16818D03*
X03074Y16318D03*
X02324Y15818D03*
X03074Y15318D03*
X02324Y14818D03*
X03074Y14318D03*
X02324Y13818D03*
X03074Y13318D03*
X02324Y12818D03*
X03074Y12318D03*
X02324Y11818D03*
X03074Y11318D03*
X02324Y10818D03*
X03074Y10318D03*
X02324Y09818D03*
X03074Y09318D03*
X02324Y08818D03*
X03074Y08318D03*
X02324Y07818D03*
X03074Y07318D03*
X02324Y06818D03*
X03074Y06318D03*
X02324Y05818D03*
X03074Y05318D03*
X02324Y04818D03*
X03074Y04318D03*
X02324Y03818D03*
X03074Y03318D03*
X02324Y02818D03*
X03074Y02318D03*
X00824Y25818D03*
X01574Y25318D03*
X00824Y24818D03*
X01574Y24318D03*
X00824Y23818D03*
X01574Y23318D03*
X00824Y22818D03*
X01574Y22318D03*
X00824Y21818D03*
X01574Y21318D03*
X00824Y20818D03*
X01574Y20318D03*
X00824Y19818D03*
X01574Y19318D03*
X00824Y18818D03*
X01574Y18318D03*
X00824Y17818D03*
X01574Y17318D03*
X00824Y16818D03*
X01574Y16318D03*
X00824Y15818D03*
X01574Y15318D03*
X00824Y14818D03*
X01574Y14318D03*
X00824Y13818D03*
X01574Y13318D03*
X00824Y12818D03*
X01574Y12318D03*
X00824Y11818D03*
X01574Y11318D03*
X00824Y10818D03*
X01574Y10318D03*
X00824Y09818D03*
X01574Y09318D03*
X00824Y08818D03*
X01574Y08318D03*
X00824Y07818D03*
X01574Y07318D03*
X00824Y06818D03*
X01574Y06318D03*
X00824Y05818D03*
X01574Y05318D03*
X00824Y04818D03*
X01574Y04318D03*
X00824Y03818D03*
X01574Y03318D03*
X00824Y02818D03*
X01574Y02318D03*
G54D47*
X05433Y00886D03*
G54D48*
X05905Y00837D03*
X06338Y00837D03*
X06771Y00837D03*
X07205Y00837D03*
X07638Y00837D03*
X08071Y00837D03*
X08504Y00837D03*
X08937Y00837D03*
G54D49*
X09901Y00886D03*
G54D50*
X10039Y03858D03*
G54D51*
X05334Y03583D03*
G54D52*
X09882Y05088D03*
G54D53*
X05462Y04468D03*
G54D41*
X21983Y22677D03*
X22583Y22677D03*
X12495Y35827D03*
X13095Y35827D03*
G54D40*
X15039Y34936D03*
X15039Y35536D03*
X12992Y34661D03*
X12992Y35261D03*
G54D41*
X16432Y37008D03*
X17032Y37008D03*
X16432Y36260D03*
X17032Y36260D03*
X15536Y36772D03*
X14936Y36772D03*
G54D40*
X20787Y19709D03*
X20787Y19109D03*
X19134Y15881D03*
X19134Y16481D03*
X19370Y14700D03*
X19370Y15300D03*
G54D41*
X24198Y19016D03*
X23598Y19016D03*
X22259Y21260D03*
X22859Y21260D03*
X21629Y21969D03*
X22229Y21969D03*
X20999Y21182D03*
X21599Y21182D03*
X20999Y20473D03*
X21599Y20473D03*
X17308Y08543D03*
X16708Y08543D03*
G54D40*
X19213Y07810D03*
X19213Y08410D03*
X18504Y07810D03*
X18504Y08410D03*
G54D41*
X17308Y07835D03*
X16708Y07835D03*
X22377Y19370D03*
X22977Y19370D03*
X21599Y16299D03*
X20999Y16299D03*
G54D40*
X24291Y16206D03*
X24291Y15606D03*
X24291Y17062D03*
X24291Y17662D03*
G54D41*
X23794Y18268D03*
X24394Y18268D03*
X20615Y17008D03*
X20015Y17008D03*
X20418Y16299D03*
X19818Y16299D03*
X04031Y05314D03*
X04631Y05314D03*
X04228Y06102D03*
X04828Y06102D03*
X04031Y04527D03*
X04631Y04527D03*
X11324Y06299D03*
X10724Y06299D03*
X10724Y05511D03*
X11324Y05511D03*
X10724Y04724D03*
X11324Y04724D03*
X10724Y03936D03*
X11324Y03936D03*
G54D40*
X53447Y14918D03*
X53447Y15518D03*
G54D41*
X13607Y03622D03*
X13007Y03622D03*
X13607Y07756D03*
X13007Y07756D03*
X61826Y27047D03*
X62426Y27047D03*
X46402Y27795D03*
X45802Y27795D03*
X43637Y31535D03*
X44237Y31535D03*
X54632Y14054D03*
X54032Y14054D03*
X54928Y16399D03*
X54328Y16399D03*
X33370Y33031D03*
X32770Y33031D03*
X34552Y32244D03*
X33952Y32244D03*
X14946Y03622D03*
X14346Y03622D03*
X14985Y07756D03*
X14385Y07756D03*
X27564Y00984D03*
X26964Y00984D03*
X37013Y00984D03*
X36413Y00984D03*
X32288Y00984D03*
X31688Y00984D03*
G54D40*
X39764Y31708D03*
X39764Y32308D03*
X40512Y31708D03*
X40512Y32308D03*
X39764Y35528D03*
X39764Y36128D03*
X40749Y35528D03*
X40749Y36128D03*
X41733Y35528D03*
X41733Y36128D03*
X42716Y35528D03*
X42716Y36128D03*
X43702Y35528D03*
X43702Y36128D03*
X44686Y35528D03*
X44686Y36128D03*
X45670Y35528D03*
X45670Y36128D03*
X46654Y35527D03*
X46654Y36127D03*
G54D41*
X51678Y34843D03*
X51078Y34843D03*
G54D40*
X53307Y34228D03*
X53307Y34828D03*
X52677Y29552D03*
X52677Y28952D03*
X49291Y29434D03*
X49291Y28834D03*
X50354Y29149D03*
X50354Y29749D03*
X46102Y12141D03*
X46102Y12741D03*
G54D41*
X45606Y13622D03*
X46206Y13622D03*
G54D40*
X54724Y08991D03*
X54724Y09591D03*
X45472Y07820D03*
X45472Y07220D03*
X50590Y09542D03*
X50590Y10142D03*
X45472Y08961D03*
X45472Y08361D03*
X46260Y08361D03*
X46260Y08961D03*
X51378Y08361D03*
X51378Y08961D03*
X50590Y08361D03*
X50590Y08961D03*
G54D41*
X48125Y07126D03*
X48725Y07126D03*
G54D40*
X59646Y07023D03*
X59646Y07623D03*
X60433Y07023D03*
X60433Y07623D03*
G54D41*
X59552Y09095D03*
X58952Y09095D03*
X59543Y08307D03*
X60143Y08307D03*
X58952Y09882D03*
X59552Y09882D03*
X59552Y10669D03*
X58952Y10669D03*
G54D40*
X58465Y05842D03*
X58465Y06442D03*
G54D41*
X57780Y06536D03*
X57180Y06536D03*
X57180Y05748D03*
X57780Y05748D03*
X56599Y05748D03*
X55999Y05748D03*
X55999Y06536D03*
X56599Y06536D03*
X57780Y11654D03*
X57180Y11654D03*
X56402Y11654D03*
X55802Y11654D03*
G54D40*
X55315Y05842D03*
X55315Y06442D03*
G54D41*
X53440Y10669D03*
X54040Y10669D03*
X54040Y09882D03*
X53440Y09882D03*
X54040Y08307D03*
X53440Y08307D03*
X53440Y09095D03*
X54040Y09095D03*
G54D40*
X53150Y07023D03*
X53150Y07623D03*
X53937Y07023D03*
X53937Y07623D03*
G54D41*
X34355Y38071D03*
X33755Y38071D03*
X04828Y06811D03*
X04228Y06811D03*
X06432Y07677D03*
X07032Y07677D03*
X05527Y11850D03*
X06127Y11850D03*
X31314Y38070D03*
X31914Y38070D03*
X32810Y34054D03*
X33410Y34054D03*
X31550Y34054D03*
X32150Y34054D03*
G54D40*
X30630Y34817D03*
X30630Y35417D03*
G54D41*
X34552Y34055D03*
X33952Y34055D03*
X03932Y00591D03*
X04532Y00591D03*
X06747Y30433D03*
X07347Y30433D03*
G54D40*
X15551Y30841D03*
X15551Y31441D03*
X05709Y35065D03*
X05709Y34465D03*
X05000Y33125D03*
X05000Y33725D03*
X11220Y35969D03*
X11220Y35369D03*
X05000Y34465D03*
X05000Y35065D03*
G54D41*
X07584Y35750D03*
X06984Y35750D03*
G54D40*
X05709Y33284D03*
X05709Y33884D03*
G54D41*
X06087Y31614D03*
X05487Y31614D03*
X06747Y31142D03*
X07347Y31142D03*
X19346Y18898D03*
X19946Y18898D03*
X04698Y26458D03*
X05298Y26458D03*
X15221Y11890D03*
X14621Y11890D03*
X15221Y11181D03*
X14621Y11181D03*
X17928Y19646D03*
X18528Y19646D03*
G54D40*
X17323Y19670D03*
X17323Y19070D03*
X12283Y10369D03*
X12283Y10969D03*
X12283Y09867D03*
X12283Y09267D03*
X10354Y23125D03*
X10354Y23725D03*
X06535Y18961D03*
X06535Y18361D03*
X12717Y12072D03*
X12717Y11472D03*
X15157Y23046D03*
X15157Y23646D03*
G54D41*
X17220Y17598D03*
X17820Y17598D03*
G54D40*
X15906Y13253D03*
X15906Y12653D03*
X12303Y23027D03*
X12303Y23627D03*
G54D41*
X07426Y21890D03*
X06826Y21890D03*
X17928Y18780D03*
X18528Y18780D03*
G54D40*
X10827Y12406D03*
X10827Y11806D03*
G54D41*
X06520Y16850D03*
X05920Y16850D03*
G54D40*
X17953Y20251D03*
X17953Y20851D03*
G54D41*
X17780Y14921D03*
X17180Y14921D03*
X17938Y14213D03*
X17338Y14213D03*
X18095Y13504D03*
X17495Y13504D03*
G54D40*
X17244Y20251D03*
X17244Y20851D03*
G54D41*
X17180Y22165D03*
X17780Y22165D03*
X17180Y21457D03*
X17780Y21457D03*
G54D40*
X06181Y14473D03*
X06181Y13873D03*
G54D41*
X07702Y22598D03*
X07102Y22598D03*
X07387Y13583D03*
X06787Y13583D03*
X18676Y12756D03*
X19276Y12756D03*
X19818Y12756D03*
X20418Y12756D03*
X16708Y12756D03*
X17308Y12756D03*
X14985Y10315D03*
X14385Y10315D03*
X15566Y10315D03*
X16166Y10315D03*
X26599Y35866D03*
X25999Y35866D03*
G54D40*
X27166Y35301D03*
X27166Y34701D03*
G54D41*
X26599Y36574D03*
X25999Y36574D03*
G54D40*
X27874Y35301D03*
X27874Y34701D03*
G54D41*
X26599Y37992D03*
X25999Y37992D03*
X26599Y38701D03*
X25999Y38701D03*
G54D40*
X29292Y34701D03*
X29292Y35301D03*
X28583Y34701D03*
X28583Y35301D03*
G54D41*
X44109Y24094D03*
X44709Y24094D03*
X44109Y25079D03*
X44709Y25079D03*
X19857Y33386D03*
X20457Y33386D03*
G54D40*
X25354Y38204D03*
X25354Y38804D03*
G54D41*
X18528Y33307D03*
X17928Y33307D03*
X20457Y35669D03*
X19857Y35669D03*
G54D40*
X25236Y37102D03*
X25236Y37702D03*
G54D41*
X20457Y34094D03*
X19857Y34094D03*
X21550Y31102D03*
X22150Y31102D03*
X20457Y34882D03*
X19857Y34882D03*
X26599Y37283D03*
X25999Y37283D03*
X22653Y31102D03*
X23253Y31102D03*
X25291Y32165D03*
X25891Y32165D03*
X25291Y31378D03*
X25891Y31378D03*
G54D40*
X25157Y35645D03*
X25157Y36245D03*
G54D41*
X21048Y32244D03*
X20448Y32244D03*
X23913Y31181D03*
X24513Y31181D03*
G54D40*
X21457Y35645D03*
X21457Y36245D03*
G54D41*
X06087Y32323D03*
X05487Y32323D03*
G54D38*
X31299Y31633D03*
X31299Y32383D03*
G54D39*
X07462Y12795D03*
X06712Y12795D03*
G54D10*
G36*
X40159Y02067D02*
X40749Y02067D01*
X40749Y01575D01*
X40159Y01575D01*
X40159Y02067D01*
X40159Y02067D01*
G37*
G36*
X40159Y03937D02*
X40749Y03937D01*
X40749Y03445D01*
X40159Y03445D01*
X40159Y03937D01*
X40159Y03937D01*
G37*
G54D54*
X36714Y03691D03*
X36714Y01821D03*
G54D10*
G36*
X35434Y02067D02*
X36024Y02067D01*
X36024Y01575D01*
X35434Y01575D01*
X35434Y02067D01*
X35434Y02067D01*
G37*
G36*
X35434Y03937D02*
X36024Y03937D01*
X36024Y03445D01*
X35434Y03445D01*
X35434Y03937D01*
X35434Y03937D01*
G37*
G54D54*
X31989Y03691D03*
X31989Y01821D03*
G54D10*
G36*
X30710Y02067D02*
X31300Y02067D01*
X31300Y01575D01*
X30710Y01575D01*
X30710Y02067D01*
X30710Y02067D01*
G37*
G36*
X30710Y03937D02*
X31300Y03937D01*
X31300Y03445D01*
X30710Y03445D01*
X30710Y03937D01*
X30710Y03937D01*
G37*
G54D54*
X27265Y03691D03*
X27265Y01821D03*
G54D10*
G36*
X30710Y11517D02*
X31300Y11517D01*
X31300Y11025D01*
X30710Y11025D01*
X30710Y11517D01*
X30710Y11517D01*
G37*
G36*
X30710Y13387D02*
X31300Y13387D01*
X31300Y12895D01*
X30710Y12895D01*
X30710Y13387D01*
X30710Y13387D01*
G37*
G54D54*
X27265Y13141D03*
X27265Y11271D03*
G54D10*
G36*
X30710Y08367D02*
X31300Y08367D01*
X31300Y07875D01*
X30710Y07875D01*
X30710Y08367D01*
X30710Y08367D01*
G37*
G36*
X30710Y10237D02*
X31300Y10237D01*
X31300Y09745D01*
X30710Y09745D01*
X30710Y10237D01*
X30710Y10237D01*
G37*
G54D54*
X27265Y09991D03*
X27265Y08121D03*
G54D10*
G36*
X30710Y05217D02*
X31300Y05217D01*
X31300Y04725D01*
X30710Y04725D01*
X30710Y05217D01*
X30710Y05217D01*
G37*
G36*
X30710Y07087D02*
X31300Y07087D01*
X31300Y06595D01*
X30710Y06595D01*
X30710Y07087D01*
X30710Y07087D01*
G37*
G54D54*
X27265Y06841D03*
X27265Y04971D03*
G54D10*
G36*
X15551Y01280D02*
X16141Y01280D01*
X16141Y00788D01*
X15551Y00788D01*
X15551Y01280D01*
X15551Y01280D01*
G37*
G36*
X15551Y03150D02*
X16141Y03150D01*
X16141Y02658D01*
X15551Y02658D01*
X15551Y03150D01*
X15551Y03150D01*
G37*
G54D54*
X12106Y02904D03*
X12106Y01034D03*
X15846Y05167D03*
X15846Y07037D03*
X12106Y07037D03*
X12106Y05167D03*
G54D10*
G36*
X40159Y05217D02*
X40749Y05217D01*
X40749Y04725D01*
X40159Y04725D01*
X40159Y05217D01*
X40159Y05217D01*
G37*
G36*
X40159Y07087D02*
X40749Y07087D01*
X40749Y06595D01*
X40159Y06595D01*
X40159Y07087D01*
X40159Y07087D01*
G37*
G54D54*
X36714Y06841D03*
X36714Y04971D03*
G54D10*
G36*
X40159Y08367D02*
X40749Y08367D01*
X40749Y07875D01*
X40159Y07875D01*
X40159Y08367D01*
X40159Y08367D01*
G37*
G36*
X40159Y10237D02*
X40749Y10237D01*
X40749Y09745D01*
X40159Y09745D01*
X40159Y10237D01*
X40159Y10237D01*
G37*
G54D54*
X36714Y09991D03*
X36714Y08121D03*
G54D10*
G36*
X40159Y11517D02*
X40749Y11517D01*
X40749Y11025D01*
X40159Y11025D01*
X40159Y11517D01*
X40159Y11517D01*
G37*
G36*
X40159Y13387D02*
X40749Y13387D01*
X40749Y12895D01*
X40159Y12895D01*
X40159Y13387D01*
X40159Y13387D01*
G37*
G54D54*
X36714Y13141D03*
X36714Y11271D03*
G54D10*
G36*
X35434Y05217D02*
X36024Y05217D01*
X36024Y04725D01*
X35434Y04725D01*
X35434Y05217D01*
X35434Y05217D01*
G37*
G36*
X35434Y07087D02*
X36024Y07087D01*
X36024Y06595D01*
X35434Y06595D01*
X35434Y07087D01*
X35434Y07087D01*
G37*
G54D54*
X31989Y06841D03*
X31989Y04971D03*
G54D10*
G36*
X35434Y08367D02*
X36024Y08367D01*
X36024Y07875D01*
X35434Y07875D01*
X35434Y08367D01*
X35434Y08367D01*
G37*
G36*
X35434Y10237D02*
X36024Y10237D01*
X36024Y09745D01*
X35434Y09745D01*
X35434Y10237D01*
X35434Y10237D01*
G37*
G54D54*
X31989Y09991D03*
X31989Y08121D03*
G54D10*
G36*
X35434Y11517D02*
X36024Y11517D01*
X36024Y11025D01*
X35434Y11025D01*
X35434Y11517D01*
X35434Y11517D01*
G37*
G36*
X35434Y13387D02*
X36024Y13387D01*
X36024Y12895D01*
X35434Y12895D01*
X35434Y13387D01*
X35434Y13387D01*
G37*
G54D54*
X31989Y13141D03*
X31989Y11271D03*
G54D10*
G36*
X08739Y25769D02*
X09329Y25769D01*
X09329Y25277D01*
X08739Y25277D01*
X08739Y25769D01*
X08739Y25769D01*
G37*
G36*
X08739Y27639D02*
X09329Y27639D01*
X09329Y27147D01*
X08739Y27147D01*
X08739Y27639D01*
X08739Y27639D01*
G37*
G54D54*
X05294Y27393D03*
X05294Y25523D03*
G54D55*
X17293Y29587D03*
X19163Y29587D03*
X19163Y33327D03*
X17293Y33327D03*
G54D56*
X16190Y14273D03*
X16190Y14469D03*
X16190Y14666D03*
X16190Y14863D03*
X16190Y15060D03*
X16190Y15257D03*
X16190Y15454D03*
X16190Y15651D03*
X16190Y15847D03*
X16190Y16044D03*
X16190Y16241D03*
X16190Y16438D03*
X16190Y16635D03*
X16190Y16832D03*
X16190Y17029D03*
X16190Y17225D03*
X16190Y17422D03*
X16190Y17619D03*
X16190Y17815D03*
X16190Y18012D03*
X16190Y18209D03*
X16190Y18405D03*
X16190Y18602D03*
X16190Y18799D03*
X16190Y18996D03*
X16190Y19193D03*
X16190Y19390D03*
X16190Y19587D03*
X16190Y19783D03*
X16190Y19980D03*
X16190Y20177D03*
X16190Y20374D03*
X16190Y20571D03*
X16190Y20768D03*
X16190Y20965D03*
X16190Y21161D03*
G54D57*
X15255Y22096D03*
X15059Y22096D03*
X14862Y22096D03*
X14665Y22096D03*
X14468Y22096D03*
X14271Y22096D03*
X14074Y22096D03*
X13877Y22096D03*
X13681Y22096D03*
X13484Y22096D03*
X13287Y22096D03*
X13090Y22096D03*
X12893Y22096D03*
X12696Y22096D03*
X12499Y22096D03*
X12303Y22096D03*
X12106Y22096D03*
X11909Y22096D03*
X11713Y22096D03*
X11516Y22096D03*
X11319Y22096D03*
X11123Y22096D03*
X10926Y22096D03*
X10729Y22096D03*
X10532Y22096D03*
X10335Y22096D03*
X10138Y22096D03*
X09941Y22096D03*
X09745Y22096D03*
X09548Y22096D03*
X09351Y22096D03*
X09154Y22096D03*
X08957Y22096D03*
X08760Y22096D03*
X08563Y22096D03*
X08367Y22096D03*
G54D56*
X07432Y21161D03*
X07432Y20965D03*
X07432Y20768D03*
X07432Y20571D03*
X07432Y20374D03*
X07432Y20177D03*
X07432Y19980D03*
X07432Y19783D03*
X07432Y19587D03*
X07432Y19390D03*
X07432Y19193D03*
X07432Y18996D03*
X07432Y18799D03*
X07432Y18602D03*
X07432Y18405D03*
X07432Y18209D03*
X07432Y18012D03*
X07432Y17815D03*
X07432Y17619D03*
X07432Y17422D03*
X07432Y17225D03*
X07432Y17029D03*
X07432Y16832D03*
X07432Y16635D03*
X07432Y16438D03*
X07432Y16241D03*
X07432Y16044D03*
X07432Y15847D03*
X07432Y15651D03*
X07432Y15454D03*
X07432Y15257D03*
X07432Y15060D03*
X07432Y14863D03*
X07432Y14666D03*
X07432Y14469D03*
X07432Y14273D03*
G54D57*
X08367Y13338D03*
X08563Y13338D03*
X08760Y13338D03*
X08957Y13338D03*
X09154Y13338D03*
X09351Y13338D03*
X09548Y13338D03*
X09745Y13338D03*
X09941Y13338D03*
X10138Y13338D03*
X10335Y13338D03*
X10532Y13338D03*
X10729Y13338D03*
X10926Y13338D03*
X11123Y13338D03*
X11319Y13338D03*
X11516Y13338D03*
X11713Y13338D03*
X11909Y13338D03*
X12106Y13338D03*
X12303Y13338D03*
X12499Y13338D03*
X12696Y13338D03*
X12893Y13338D03*
X13090Y13338D03*
X13287Y13338D03*
X13484Y13338D03*
X13681Y13338D03*
X13877Y13338D03*
X14074Y13338D03*
X14271Y13338D03*
X14468Y13338D03*
X14665Y13338D03*
X14862Y13338D03*
X15059Y13338D03*
X15255Y13338D03*
G54D58*
X22225Y32068D03*
X22422Y32068D03*
X22619Y32068D03*
X22815Y32068D03*
X23012Y32068D03*
X23209Y32068D03*
X23405Y32068D03*
X23602Y32068D03*
X23799Y32068D03*
X23995Y32068D03*
X24192Y32068D03*
X24389Y32068D03*
G54D59*
X25137Y32816D03*
X25137Y33013D03*
X25137Y33210D03*
X25137Y33406D03*
X25137Y33603D03*
X25137Y33800D03*
X25137Y33996D03*
X25137Y34193D03*
X25137Y34390D03*
X25137Y34586D03*
X25137Y34783D03*
X25137Y34980D03*
G54D58*
X24389Y35728D03*
X24192Y35728D03*
X23995Y35728D03*
X23799Y35728D03*
X23602Y35728D03*
X23405Y35728D03*
X23209Y35728D03*
X23012Y35728D03*
X22815Y35728D03*
X22619Y35728D03*
X22422Y35728D03*
X22225Y35728D03*
G54D59*
X21477Y34980D03*
X21477Y34783D03*
X21477Y34586D03*
X21477Y34390D03*
X21477Y34193D03*
X21477Y33996D03*
X21477Y33800D03*
X21477Y33603D03*
X21477Y33406D03*
X21477Y33210D03*
X21477Y33013D03*
X21477Y32816D03*
G54D60*
X35926Y31692D03*
X35926Y31495D03*
X35926Y31299D03*
X35926Y31103D03*
X35926Y30906D03*
X38090Y30906D03*
X38090Y31103D03*
X38090Y31299D03*
X38090Y31495D03*
X38090Y31692D03*
G54D61*
X59021Y16066D03*
X56021Y16066D03*
X59021Y13066D03*
X56021Y13066D03*
G54D62*
X44938Y34261D03*
X44438Y34261D03*
X43938Y34261D03*
X43438Y34261D03*
X42940Y34261D03*
X42440Y34261D03*
X41940Y34261D03*
X41440Y34261D03*
X41440Y32353D03*
X41940Y32353D03*
X42440Y32353D03*
X42940Y32353D03*
X43438Y32353D03*
X43938Y32353D03*
X44438Y32353D03*
X44938Y32353D03*
G54D63*
X55936Y10594D03*
X55936Y10094D03*
X55936Y09594D03*
X55936Y09095D03*
X55936Y08596D03*
X55936Y08096D03*
X55936Y07596D03*
X57844Y07596D03*
X57844Y08096D03*
X57844Y08596D03*
X57844Y09095D03*
X57844Y09594D03*
X57844Y10094D03*
X57844Y10594D03*
G54D62*
X31361Y35108D03*
X31861Y35108D03*
X32361Y35108D03*
X32861Y35108D03*
X33359Y35108D03*
X33859Y35108D03*
X34359Y35108D03*
X34859Y35108D03*
X34859Y37016D03*
X34359Y37016D03*
X33859Y37016D03*
X33359Y37016D03*
X32861Y37016D03*
X32361Y37016D03*
X31861Y37016D03*
X31361Y37016D03*
X07048Y10678D03*
X06548Y10678D03*
X06050Y10678D03*
X05550Y10678D03*
X05550Y08770D03*
X06050Y08770D03*
X06548Y08770D03*
X07048Y08770D03*
G54D63*
X49379Y07912D03*
X49379Y08412D03*
X49379Y08910D03*
X49379Y09410D03*
X47471Y09410D03*
X47471Y08910D03*
X47471Y08412D03*
X47471Y07912D03*
G54D64*
X53041Y31713D03*
X53041Y31910D03*
X53041Y32106D03*
X53041Y32303D03*
X53041Y32500D03*
X53041Y32696D03*
X53041Y32893D03*
X53041Y33090D03*
X53041Y33286D03*
X53041Y33483D03*
G54D65*
X52657Y33867D03*
X52460Y33867D03*
X52264Y33867D03*
X52067Y33867D03*
X51870Y33867D03*
X51674Y33867D03*
X51477Y33867D03*
X51280Y33867D03*
X51084Y33867D03*
X50887Y33867D03*
G54D64*
X50503Y33483D03*
X50503Y33286D03*
X50503Y33090D03*
X50503Y32893D03*
X50503Y32696D03*
X50503Y32500D03*
X50503Y32303D03*
X50503Y32106D03*
X50503Y31910D03*
X50503Y31713D03*
G54D65*
X50887Y31329D03*
X51084Y31329D03*
X51280Y31329D03*
X51477Y31329D03*
X51674Y31329D03*
X51870Y31329D03*
X52067Y31329D03*
X52264Y31329D03*
X52460Y31329D03*
X52657Y31329D03*
G54D66*
X51772Y32598D03*
G54D41*
X49749Y33465D03*
X49149Y33465D03*
G54D39*
X61475Y11969D03*
X62225Y11969D03*
X61515Y07835D03*
X62265Y07835D03*
G54D41*
X04080Y30709D03*
X03480Y30709D03*
X06983Y31850D03*
X07583Y31850D03*
G54D67*
X16259Y35416D03*
X16063Y35416D03*
X15867Y35416D03*
X15867Y34662D03*
X16063Y34662D03*
X16259Y34662D03*
G54D68*
X16063Y35039D03*
M02*
