M48
;DRILL file {PCBnew (2011-07-08 BZR 3044)-stable} date 07/12/2011 16:14:38
;FORMAT={-:-/ absolute / metric / decimal}
FMAT,2
METRIC,TZ
T1C0.300
T2C0.399
T3C0.500
T4C0.599
T5C0.648
T6C0.701
T7C0.798
T8C0.813
T9C0.889
T10C0.899
T11C1.016
T12C1.021
T13C1.199
T14C1.300
T15C1.400
T16C1.501
T17C1.570
T18C2.101
T19C2.301
T20C3.099
T21C3.175
T22C3.251
%
G90
G05
M71
T1
X38.801Y24.600
X38.801Y23.802
T2
X4.501Y40.201
X4.600Y45.301
X4.600Y42.700
X9.901Y17.300
X10.899Y13.500
X10.899Y11.501
X11.001Y12.499
X11.100Y67.201
X11.400Y78.001
X11.400Y15.499
X11.501Y14.600
X11.600Y17.300
X12.200Y1.501
X12.700Y86.700
X12.700Y83.299
X13.299Y12.499
X14.300Y12.499
X14.699Y69.601
X15.601Y53.200
X15.700Y42.799
X15.700Y35.900
X16.200Y30.401
X16.500Y55.601
X16.500Y52.901
X16.500Y43.701
X16.599Y45.900
X16.901Y48.801
X17.099Y30.401
X17.201Y57.399
X17.201Y3.701
X17.899Y83.800
X17.899Y34.900
X18.400Y23.500
X18.999Y30.401
X19.401Y55.601
X20.000Y54.501
X20.599Y53.299
X20.599Y52.100
X20.599Y48.801
X20.599Y43.299
X20.599Y37.201
X21.001Y72.400
X21.199Y73.500
X21.199Y54.000
X21.501Y52.301
X21.900Y72.901
X22.200Y51.199
X22.301Y35.601
X22.400Y52.301
X22.601Y50.401
X22.700Y72.601
X22.799Y30.401
X23.000Y49.601
X23.000Y28.900
X23.401Y48.801
X23.401Y23.099
X23.500Y35.900
X23.800Y48.001
X23.800Y21.001
X24.000Y66.500
X24.000Y37.300
X24.300Y70.099
X24.300Y68.900
X24.300Y67.701
X24.300Y54.300
X24.399Y35.700
X24.501Y53.401
X24.600Y51.801
X24.600Y48.400
X25.001Y69.499
X25.001Y68.301
X25.100Y31.999
X25.199Y49.101
X25.301Y52.400
X25.400Y29.901
X25.400Y20.300
X25.400Y19.401
X25.499Y66.500
X25.499Y15.199
X25.499Y14.300
X25.601Y11.501
X25.700Y71.900
X25.799Y48.400
X25.799Y31.501
X26.299Y66.901
X26.500Y71.600
X26.500Y50.300
X26.500Y29.901
X26.700Y35.601
X26.749Y61.001
X26.800Y59.400
X26.800Y57.899
X26.800Y32.101
X26.901Y63.200
X26.901Y46.901
X26.901Y43.500
X27.000Y89.799
X27.201Y17.099
X27.501Y26.800
X27.899Y35.700
X28.001Y15.001
X28.001Y11.001
X28.001Y4.100
X28.100Y8.001
X28.199Y48.100
X28.600Y29.901
X28.600Y17.099
X28.801Y50.201
X28.801Y49.299
X29.299Y90.401
X29.401Y31.300
X29.500Y11.999
X29.601Y80.500
X29.601Y78.900
X29.601Y67.399
X29.799Y32.101
X30.000Y39.200
X30.099Y26.200
X30.500Y29.601
X30.599Y39.901
X30.701Y73.701
X30.800Y80.500
X30.800Y78.900
X30.800Y16.599
X30.899Y6.101
X31.001Y60.800
X31.001Y50.800
X31.001Y31.600
X31.199Y63.800
X31.199Y27.201
X31.199Y24.201
X31.300Y59.101
X31.300Y30.000
X31.300Y29.101
X31.399Y47.201
X31.600Y73.701
X31.699Y32.200
X31.801Y54.399
X32.200Y88.999
X32.200Y46.800
X32.301Y91.801
X32.301Y73.101
X32.301Y58.001
X32.301Y30.000
X32.499Y85.801
X32.700Y65.700
X32.700Y63.800
X32.700Y58.801
X32.799Y47.800
X33.000Y59.601
X33.099Y66.599
X33.099Y31.801
X33.200Y80.500
X33.200Y78.900
X33.200Y73.101
X33.599Y63.599
X33.701Y64.900
X33.701Y50.899
X33.800Y44.099
X34.099Y65.801
X34.099Y50.099
X34.099Y29.901
X34.099Y28.999
X34.399Y80.500
X34.399Y78.900
X34.600Y36.599
X34.699Y49.400
X34.699Y44.099
X34.699Y42.601
X34.699Y39.101
X34.900Y32.101
X35.001Y66.700
X35.001Y65.499
X35.001Y47.501
X35.001Y29.901
X35.001Y25.301
X35.199Y31.199
X35.400Y83.101
X35.400Y82.199
X35.499Y54.300
X35.499Y53.401
X35.700Y89.799
X35.700Y37.399
X35.900Y66.401
X35.900Y65.499
X35.900Y47.099
X36.299Y77.099
X36.299Y30.401
X36.401Y80.401
X36.401Y31.300
X36.500Y44.399
X36.500Y43.200
X36.599Y36.901
X36.700Y59.299
X36.901Y45.199
X37.000Y93.401
X37.201Y39.901
X37.201Y26.200
X37.300Y58.600
X37.300Y27.300
X37.399Y77.099
X37.399Y40.800
X37.399Y32.101
X37.501Y91.999
X37.501Y80.401
X37.501Y46.700
X37.501Y36.901
X37.600Y64.399
X37.600Y45.799
X37.701Y31.300
X37.701Y29.799
X37.899Y59.400
X38.001Y54.399
X38.100Y41.501
X38.199Y94.800
X38.199Y91.001
X38.400Y38.699
X38.499Y64.399
X38.600Y31.399
X38.699Y45.100
X38.801Y48.199
X38.801Y9.200
X38.900Y19.700
X39.101Y59.200
X39.101Y41.399
X39.101Y36.551
X39.200Y80.599
X39.200Y51.450
X39.200Y49.700
X39.400Y53.599
X39.400Y39.500
X39.700Y91.999
X40.000Y85.199
X40.000Y84.300
X40.099Y32.700
X40.401Y57.201
X40.899Y33.000
X41.001Y85.999
X41.600Y85.301
X41.699Y34.501
X41.801Y68.001
X41.900Y26.200
X42.101Y88.999
X42.601Y34.501
X42.799Y54.501
X42.799Y52.200
X42.799Y43.500
X42.799Y36.599
X42.809Y39.139
X42.901Y42.200
X43.500Y34.399
X43.701Y43.599
X43.701Y41.900
X43.899Y85.801
X44.000Y38.999
X44.099Y94.000
X44.099Y92.100
X44.300Y52.301
X44.801Y32.400
X44.900Y38.999
X44.900Y21.699
X45.100Y90.599
X45.100Y88.600
X45.100Y86.599
X45.700Y83.500
X45.900Y52.301
X45.900Y44.699
X45.999Y56.299
X45.999Y54.501
X46.200Y47.800
X46.401Y49.901
X46.500Y32.400
X46.800Y51.699
X46.901Y37.201
X47.000Y22.200
X47.701Y47.800
X48.801Y22.200
X48.900Y42.700
X48.999Y51.699
X48.999Y50.800
X49.500Y43.401
X49.700Y52.301
X50.099Y42.700
X50.401Y50.599
X50.599Y37.300
X50.701Y49.400
X50.899Y41.999
X51.100Y84.800
X51.600Y47.501
X52.400Y23.200
X52.400Y19.500
X52.601Y82.799
X52.601Y38.499
X52.700Y32.400
X52.799Y47.800
X52.799Y45.199
X53.000Y40.201
X53.899Y78.999
X53.899Y50.099
X54.300Y81.900
X54.501Y89.700
X55.100Y94.501
X55.499Y91.399
X55.502Y45.999
X55.502Y44.801
X56.101Y84.000
X56.500Y94.099
X56.500Y92.901
X56.599Y83.000
X56.599Y52.901
X56.700Y45.999
X56.700Y44.801
X57.000Y89.200
X58.001Y92.301
X58.001Y88.801
X58.100Y55.100
X58.400Y48.301
X58.499Y94.501
X58.499Y38.900
X58.999Y88.801
X59.200Y40.800
X59.400Y46.101
X59.400Y39.101
X59.400Y1.600
X59.700Y79.901
X59.700Y78.100
X60.000Y79.101
X60.201Y49.901
X60.401Y94.300
X60.500Y93.401
X60.599Y88.600
X60.599Y39.700
X61.501Y88.600
X61.600Y92.301
X62.200Y48.301
X62.301Y88.301
X62.301Y86.901
X62.601Y91.999
X62.601Y59.901
X62.700Y46.401
X62.700Y44.801
X63.101Y96.700
X63.101Y79.200
X64.800Y89.901
X65.001Y92.100
X65.001Y80.701
X65.001Y78.699
X65.199Y94.201
X66.799Y50.701
X66.901Y78.301
X67.300Y79.101
X67.501Y2.499
X68.400Y95.301
X69.251Y31.999
X69.251Y24.000
X69.251Y15.999
X69.251Y8.001
X69.901Y41.199
X75.400Y89.700
X76.500Y62.301
X77.099Y67.000
X77.201Y61.600
X77.800Y87.600
X78.001Y67.000
X78.400Y55.100
X78.801Y96.700
X79.299Y64.800
X79.299Y55.100
X79.499Y83.401
X79.499Y2.499
X80.000Y54.399
X80.099Y64.000
X81.100Y73.401
X81.250Y31.999
X81.250Y24.000
X81.250Y15.999
X81.250Y8.001
X81.801Y96.698
X81.999Y83.200
X81.999Y73.101
X82.301Y37.099
X82.601Y28.301
X82.601Y20.201
X83.200Y20.899
X84.800Y92.301
X84.900Y96.101
X85.700Y80.701
X88.501Y73.101
X88.600Y92.100
X88.600Y86.500
X88.900Y95.700
X88.999Y80.000
X89.200Y73.701
X89.400Y79.200
X89.400Y77.000
X89.601Y68.199
X90.000Y78.501
X90.200Y80.701
X90.800Y68.199
X91.501Y2.499
X93.251Y31.999
X93.251Y24.000
X93.251Y15.999
X93.251Y8.001
X93.302Y35.499
X97.800Y79.499
X97.800Y78.501
X98.900Y65.301
X98.999Y68.001
X99.799Y65.301
X100.599Y72.100
X100.701Y65.301
X101.001Y97.099
X101.001Y87.201
X101.001Y79.499
X101.600Y70.800
X101.600Y65.100
X102.499Y70.800
X102.900Y87.201
X102.900Y79.499
X103.401Y65.100
X103.500Y97.099
X104.099Y64.399
X105.301Y85.499
X105.999Y97.099
X106.500Y80.500
X107.800Y83.800
X108.501Y97.099
X110.401Y83.701
X110.401Y47.201
X111.001Y97.099
X111.600Y47.201
X112.199Y69.400
X113.000Y69.700
X113.500Y97.099
X113.701Y66.901
X114.501Y63.701
X114.600Y66.901
X114.699Y85.001
X114.699Y61.300
X115.400Y73.599
X115.400Y70.599
X115.999Y97.099
X118.199Y86.700
X118.501Y97.099
X118.501Y87.500
X119.101Y86.799
X120.200Y89.700
X120.899Y36.401
X122.199Y89.700
X122.900Y18.100
X123.000Y24.201
X123.901Y23.899
X124.201Y89.700
X124.201Y74.699
X124.501Y18.100
X124.899Y85.999
X124.899Y80.899
X126.200Y89.700
X126.401Y85.999
X126.601Y78.301
X126.601Y76.799
X126.901Y74.099
X128.199Y89.700
X128.400Y86.599
X129.700Y84.600
X129.700Y83.398
X129.700Y82.199
X129.700Y80.998
X130.200Y89.700
X130.500Y76.401
X130.599Y77.399
X130.800Y74.900
X130.800Y73.500
X130.901Y84.600
X130.901Y83.398
X130.901Y82.199
X130.901Y80.998
X131.399Y87.399
X132.100Y84.600
X132.100Y83.398
X132.100Y82.199
X132.100Y80.998
X132.199Y89.700
X132.199Y87.800
X132.799Y87.099
X133.302Y84.600
X133.302Y83.398
X133.302Y82.199
X133.302Y80.998
X133.749Y19.350
X133.800Y77.099
X134.201Y89.700
X134.399Y88.501
X134.800Y74.900
X134.800Y74.000
X135.400Y73.200
X135.499Y79.499
X135.499Y75.601
X135.804Y37.099
X135.999Y14.000
X136.200Y89.700
X136.401Y87.000
X136.401Y79.400
X137.000Y85.900
X137.000Y84.300
X137.000Y75.601
X137.399Y73.200
X137.434Y89.687
X137.500Y37.000
X138.232Y89.687
X138.250Y27.099
X138.801Y85.900
X138.801Y84.501
X138.999Y25.349
X139.400Y73.200
X139.799Y85.199
X140.099Y89.700
X140.099Y76.599
X140.500Y15.499
X140.749Y29.601
X141.399Y73.200
X141.600Y78.600
X141.600Y76.599
X142.301Y77.600
X142.499Y88.501
X143.101Y89.700
X143.200Y87.500
X143.401Y85.199
X143.401Y83.200
X143.401Y73.200
X143.599Y26.299
X143.901Y88.501
X144.099Y84.201
X144.501Y24.300
X145.100Y89.700
X145.301Y23.200
X145.400Y73.200
X147.099Y89.700
X147.399Y73.200
X147.599Y30.701
X147.800Y29.601
X148.501Y15.499
X149.101Y89.700
X149.400Y73.200
X149.751Y28.349
X150.000Y17.899
X150.401Y25.100
X150.401Y23.099
X151.100Y89.700
X151.399Y73.200
X152.499Y14.000
X153.101Y89.700
X153.401Y73.200
X154.750Y19.350
X155.100Y89.700
X155.400Y73.200
X156.101Y68.699
X157.099Y89.700
X157.099Y19.901
X157.401Y73.200
X158.900Y89.700
X158.900Y87.701
X158.900Y85.700
X158.900Y83.701
X158.900Y81.699
X158.900Y79.700
X158.900Y77.701
X158.900Y75.700
X158.900Y73.701
T3
X118.501Y16.401
X118.501Y14.399
X127.500Y16.401
X127.500Y14.399
T4
X8.301Y3.500
X12.101Y98.199
X14.100Y86.799
X14.100Y28.900
X14.100Y20.300
X15.199Y13.299
X16.251Y95.804
X19.200Y83.701
X19.751Y95.804
X32.101Y97.201
X36.700Y89.499
X47.201Y98.501
X67.800Y86.299
X75.601Y86.299
X99.299Y91.102
X113.701Y84.099
T5
X71.768Y97.638
X71.768Y96.368
X71.768Y95.100
X71.768Y93.833
X71.768Y92.563
X73.033Y97.638
X73.033Y96.368
X73.033Y95.100
X73.033Y93.833
X73.033Y92.563
T6
X23.251Y92.804
X25.751Y92.804
T7
X2.093Y68.118
X2.093Y65.578
X2.093Y63.038
X2.093Y60.498
X2.093Y57.958
X2.093Y55.418
X2.093Y52.878
X2.093Y50.338
X2.093Y47.798
X2.093Y45.258
X2.093Y42.718
X2.093Y40.178
X2.093Y37.638
X2.093Y35.098
X2.093Y32.558
X2.093Y30.018
X2.093Y27.478
X2.093Y24.938
X2.093Y22.398
X2.093Y19.858
X2.093Y17.318
X2.093Y14.778
X2.093Y12.238
X2.093Y9.698
X2.093Y7.158
X3.998Y66.848
X3.998Y64.308
X3.998Y61.768
X3.998Y59.228
X3.998Y56.688
X3.998Y54.148
X3.998Y51.608
X3.998Y49.068
X3.998Y46.528
X3.998Y43.988
X3.998Y41.448
X3.998Y38.908
X3.998Y36.368
X3.998Y33.828
X3.998Y31.288
X3.998Y28.748
X3.998Y26.208
X3.998Y23.668
X3.998Y21.128
X3.998Y18.588
X3.998Y16.048
X3.998Y13.508
X3.998Y10.968
X3.998Y8.428
X3.998Y5.888
X5.903Y68.118
X5.903Y65.578
X5.903Y63.038
X5.903Y60.498
X5.903Y57.958
X5.903Y55.418
X5.903Y52.878
X5.903Y50.338
X5.903Y47.798
X5.903Y45.258
X5.903Y42.718
X5.903Y40.178
X5.903Y37.638
X5.903Y35.098
X5.903Y32.558
X5.903Y30.018
X5.903Y27.478
X5.903Y24.938
X5.903Y22.398
X5.903Y19.858
X5.903Y17.318
X5.903Y14.778
X5.903Y12.238
X5.903Y9.698
X5.903Y7.158
X7.808Y66.848
X7.808Y64.308
X7.808Y61.768
X7.808Y59.228
X7.808Y56.688
X7.808Y54.148
X7.808Y51.608
X7.808Y49.068
X7.808Y46.528
X7.808Y43.988
X7.808Y41.448
X7.808Y38.908
X7.808Y36.368
X7.808Y33.828
X7.808Y31.288
X7.808Y28.748
X7.808Y26.208
X7.808Y23.668
X7.808Y21.128
X7.808Y18.588
X7.808Y16.048
X7.808Y13.508
X7.808Y10.968
X7.808Y8.428
X7.808Y5.888
T8
X108.869Y63.711
X108.869Y61.171
X108.869Y58.631
X108.869Y56.091
X108.869Y53.551
X108.869Y51.011
X108.869Y48.471
X108.869Y45.931
X108.869Y41.867
X108.869Y39.327
X108.869Y36.787
X108.869Y34.247
X108.869Y31.707
X108.869Y29.167
X108.869Y26.627
X108.869Y24.087
X157.129Y63.711
X157.129Y61.171
X157.129Y58.631
X157.129Y56.091
X157.129Y53.551
X157.129Y51.011
X157.129Y45.931
X157.129Y43.391
X157.129Y40.851
X157.129Y38.311
X157.129Y35.771
X157.129Y33.231
T9
X45.756Y13.350
X47.026Y15.890
X48.296Y13.350
X49.566Y15.890
X50.836Y13.350
X52.106Y15.890
X53.376Y13.350
X54.646Y15.890
T10
X120.452Y71.100
X122.992Y71.100
X125.532Y71.100
X128.072Y71.100
X130.612Y71.100
X133.152Y71.100
X135.692Y71.100
X138.232Y71.100
X140.767Y71.100
X143.307Y71.100
X145.847Y71.100
X148.387Y71.100
X150.927Y71.100
X153.467Y71.100
X156.007Y71.100
X158.547Y71.100
T11
X15.029Y16.901
X17.569Y16.901
X21.001Y28.471
X21.001Y25.931
X21.001Y22.040
X21.001Y19.500
X21.001Y16.960
X25.999Y27.841
X25.999Y25.301
X25.999Y22.761
X28.999Y27.841
X28.999Y25.301
X28.999Y22.761
X33.630Y22.101
X36.170Y22.101
X41.359Y59.601
X43.899Y59.601
X46.439Y59.601
X48.829Y56.299
X51.369Y56.299
X68.529Y83.401
X68.529Y80.201
X71.069Y83.401
X71.069Y80.201
X74.331Y83.401
X74.331Y80.201
X76.871Y83.401
X76.871Y80.201
X91.361Y93.099
X91.361Y90.099
X93.901Y93.099
X93.901Y90.099
X96.441Y93.099
X96.441Y90.099
X107.599Y74.140
X107.599Y71.600
X107.599Y69.060
X110.599Y74.140
X110.599Y71.600
X110.599Y69.060
X119.555Y28.603
X119.560Y34.600
X119.560Y31.600
X122.095Y28.603
X122.100Y34.600
X122.100Y31.600
X124.635Y28.603
X124.640Y34.600
X124.640Y31.600
X136.484Y32.654
X139.024Y32.654
X157.201Y27.640
X157.201Y25.100
X157.201Y22.560
T12
X43.576Y2.941
X46.116Y2.941
X54.285Y2.941
X56.825Y2.941
T13
X117.998Y4.001
X117.998Y1.501
X123.000Y9.002
X128.001Y4.001
X128.001Y1.501
X139.499Y4.001
X139.499Y1.501
X144.501Y9.002
X149.502Y4.001
X149.502Y1.501
T14
X146.103Y40.046
T15
X5.999Y81.801
X9.500Y81.801
T16
X117.998Y9.002
X120.500Y9.002
X123.000Y4.001
X125.499Y9.002
X128.001Y9.002
X139.499Y9.002
X142.001Y9.002
X144.501Y4.001
X147.000Y9.002
X149.502Y9.002
T17
X42.456Y10.051
X57.945Y10.051
T18
X2.598Y88.999
T19
X3.998Y71.427
X3.998Y2.578
T20
X7.399Y92.499
X7.399Y86.500
T21
X108.869Y15.451
X124.109Y66.251
X152.049Y66.251
X157.129Y14.181
T22
X44.486Y7.000
X55.916Y7.000
T0
M30
